<svg clip-rule="evenodd"
    fill-rule="evenodd"
    height="512"
    image-rendering="optimizeQuality"
    shape-rendering="geometricPrecision"
    text-rendering="geometricPrecision"
    viewBox="0 0 512 512"
    width="512"
    xmlns="http://www.w3.org/2000/svg">
    <g id="Layer_x0020_1">
        <g id="_310531640">
            <path
                id="_310532000"
                d="m254.752 511.93c-90.0972 0-166.406-35.8472-199.125-93.5515-21.4061-37.7532-34.5991-103.359 24.1101-201.506 5.10491-8.53342 18.3543-3.73691 16.8078 6.0891-4.8291 30.6814 1.76712 44.9802 6.91228 51.2014 12.0166-17.3548 18.2041-36.9522 18.4076-58.3736.176882-18.4966-4.40447-31.5227-4.45124-31.6525-2.47861-6.90406 3.95603-13.8404 11.0234-11.8576 36.0499 10.1143 49.2293 33.4199 53.0609 52.9041 3.85115-15.2314 2.35701-35.3642.918425-44.2304-5.66504-35.1989 8.93537-53.8739 24.3933-73.6455 16.6487-21.2958 35.519-45.4323 40.4331-98.9663.435118-4.73839 4.47534-8.31232 9.20239-8.27065 4.75739.0705827 8.65814 3.79332 8.95153 8.54164 4.10825 66.534 25.1753 89.5212 42.103 107.991 14.4607 15.7776 28.1188 30.6802 22.7041 64.3306-1.44057 8.87839-2.93499 29.0152.914457 44.2488 3.82649-19.4749 17.0232-42.7958 53.0606-52.903 7.10674-1.99304 13.5184 4.96006 11.0143 11.8834-.0374173.104315-4.61906 13.1304-4.44302 31.6273.204095 21.4211 6.39099 41.0187 18.4076 58.3733 5.14517-6.22006 11.7405-20.52 6.91228-51.2014-1.5463-9.82517 11.7014-14.6245 16.8063-6.08882 58.1003 97.128 44.7849 162.494 23.3858 200.226-17.0745 30.1059-46.1132 54.8246-83.9755 71.4867-34.7066 15.2711-75.3511 23.3447-117.534 23.3447z"
                fill="#ff2512" />
        </g>
    </g>
</svg>