<svg width="380" height="380" viewBox="0 0 380 380" fill="none" xmlns="http://www.w3.org/2000/svg">
<path d="M362.222 236.092L362.288 236.014C384.687 209.376 384.687 170.49 362.288 143.853L362.222 143.773C368.325 109.46 348.835 75.7361 316.057 63.8941L316.044 63.889L316.039 63.8746C304.197 31.0963 270.474 11.6063 236.16 17.7101H236.159L236.081 17.6441C209.444 -4.75508 170.557 -4.75508 143.92 17.6441L143.841 17.7101C109.527 11.6063 75.8034 31.0963 63.9615 63.8746L63.9564 63.8879L63.9419 63.8931C31.1636 75.735 11.6736 109.458 17.7775 143.771V143.772L17.7115 143.851C-4.6877 170.488 -4.6877 209.374 17.7115 236.012L17.7775 236.091C11.6736 270.404 31.1636 304.128 63.9419 315.97L63.9553 315.975L63.9605 315.99C75.8024 348.768 109.525 368.258 143.839 362.154H143.84L143.918 362.22C170.555 384.619 209.442 384.619 236.079 362.22L236.157 362.154C270.471 368.258 304.195 348.768 316.037 315.99L316.042 315.976L316.056 315.971C348.835 304.129 368.325 270.406 362.222 236.092V236.092Z" fill="#F1C6AD"/>
</svg>
