<svg id="Layer_1" enable-background="new 0 0 53 53" height="512" viewBox="0 0 53 53" width="512" xmlns="http://www.w3.org/2000/svg"><g><path d="m20.3065186 12.2750092c2.6088867 0 4.7319336-2.1229858 4.7319336-4.7319946 0-2.6099854-2.1230469-4.7330017-4.7319336-4.7330017-2.6040039 0-4.7220459 2.1230164-4.7220459 4.7330017 0 2.6090087 2.1180419 4.7319946 4.7220459 4.7319946"/><path d="m30.071167 30.154892v-11.2859803c0-2.1610107-1.7590332-3.9200134-3.9210205-3.9200134h-9.9890137c-1.1450195 0-2.2210693.4460144-3.0300293 1.2550049l-6.6259765 6.6260071c-.5379639.5390015-.8349609 1.2539978-.8349609 2.0149841 0 .7620239.2969971 1.4770203.8349609 2.0160217 1.1099854 1.1089783 2.9169922 1.1109924 4.0289307.0019836l4.0810547-4.0769958v23.053009c0 1.9700012 1.6020508 3.572998 3.572998 3.572998h4.3409424c1.9710693 0 3.572998-1.6029968 3.572998-3.572998v-12.3730163h.6580811c1.8259277 0 3.3110351-1.4849853 3.3110351-3.3110046"/><path d="m33.9451904 12.2750092c2.6088867 0 4.7319336-2.1229858 4.7319336-4.7319946 0-2.6099854-2.1230469-4.7330017-4.7319336-4.7330017-2.6040039 0-4.7220459 2.1230164-4.7220459 4.7330017 0 2.6090087 2.118042 4.7319946 4.7220459 4.7319946"/><path d="m46.4998779 26.8599091c.539917-.539978.8299561-1.25.8299561-2.0099792 0-.7700195-.2900391-1.480011-.8299561-2.0200195l-6.6311035-6.6299744c-.80896-.8099976-1.8800049-1.25-3.0289307-1.25h-5.8399658c-.5300293 0-1.0510254.0999756-1.5300293.2999878.9790039.8900146 1.598999 2.1900024 1.598999 3.6199951v11.2799988c0 2.2700195-1.75 4.1300049-3.9689941 4.3000183v4.6299744h1.6289063c.4510498 0 .8110352.3700256.8110352.8100281v6.9299927c0 1.6799927 1.3590088 3.039978 3.0400391 3.039978h2.7390137c1.6810303 0 3.039917-1.3599854 3.039917-3.039978v-6.9299927c0-.4400024.3699951-.8100281.8110352-.8100281h2.0999756c.4689941 0 .9100342-.2099915 1.1900635-.5799866.2900391-.3699951.3900146-.8500061.2689209-1.2999878l-3.6099854-13.6800232 3.3510742 3.3399963c1.1099852 1.1100158 2.9199217 1.1100158 4.0300291 0"/><path d="m6.3592529 49.6899872c0 .2800293.2209473.5.5.5.2799072 0 .5-.2199707.5-.5v-21.1699829c-.3590088-.1199951-.6890869-.2799988-1-.4899902z"/><path d="m45.6590576 49.6899872c0 .2800293.2299805.5.5.5.2799072 0 .5-.2199707.5-.5v-21.6699829c-.3100586.2099915-.6400146.3800049-1 .4899902z"/></g></svg>