<svg id="Layer_1" enable-background="new 0 0 511.259 511.259" height="512" viewBox="0 0 511.259 511.259" width="512" xmlns="http://www.w3.org/2000/svg"><g><ellipse cx="327.605" cy="42.08" rx="42.08" ry="42.08" transform="matrix(.055 -.999 .999 .055 267.473 366.856)"/><path d="m430.981 145.379c-.133-26.372-22.071-47.314-48.876-47.314-21.375 0-134.57-.109-135.044 0-2.961 5.486-6.905 11.789-11.585 15.837 14.569.175 28.003 6.139 38.152 16.904 0 22.905-.012 356.089-.012 356.089 0 13.456 10.908 24.364 24.364 24.364s24.292-10.908 24.292-24.364v-194.747h10.885v194.747c0 13.456 10.615 24.364 24.071 24.364s24.364-10.908 24.364-24.364c0-11.732.019-348.715.019-348.715h.493c4.298 0 8.232 3.512 8.27 7.376v149.088c0 11.214 9.09 20.304 20.304 20.304 11.213 0 20.304-9.09 20.304-20.304v-149.162c0-.035 0-.069-.001-.103z"/><path d="m156.882 98.625-16.391-5.693c-10.794-3.749-22.515 2.371-25.609 13.371-2.755 9.797 2.349 20.09 11.815 23.826l3.442 1.359c10.22-11.189 23.902-17.407 38.772-17.585-4.922-4.26-9.021-9.441-12.029-15.278z"/><ellipse cx="202.194" cy="75.372" rx="39.029" ry="39.03" transform="matrix(.038 -.999 .999 .038 119.118 274.525)"/><path d="m169.57 126.843c-20.155 0-34.805 12.891-43.543 38.316-13.541 39.403-44.291 123.532-44.599 124.377-3.572 9.768 1.452 20.582 11.22 24.153 9.746 3.564 20.574-1.432 24.153-11.22.22-.602 15.848-43.358 29.782-82.333-3.602 22.262-15.649 96.717-19.394 119.866-1.111 6.409 3.85 12.26 10.308 12.26h14.623v135.682c0 12.481 10.118 22.598 22.598 22.598s22.598-10.118 22.598-22.598v-135.681h9.757v135.682c0 12.481 10.118 22.598 22.598 22.598s22.598-10.118 22.598-22.598v-135.682h8.967v-215.462c-7.348-6.618-16.17-9.959-26.418-9.959-14.221.001-51.192.001-65.248.001z"/></g></svg>