<svg id="Layer_1"
    height="512"
    viewBox="0 0 66 66"
    width="512"
    xmlns="http://www.w3.org/2000/svg">
    <g>
        <path d="m16.402 21.396 1.594 20.76c.021.23.166.417.365.501 0 .016-.005.031-.005.047v19.21c0 1.571 1.273 2.844 2.844 2.844s2.844-1.273 2.844-2.844v-19.208h1.545v19.208c0 1.571 1.273 2.844 2.844 2.844s2.844-1.273 2.844-2.844c-.024-20.209.057-19.231-.063-19.802l.699-3.559.322-4.238c-.706.895-1.966 1.335-3.214.872-1.469-.559-2.209-2.199-1.659-3.669l5.859-15.443c-5.811-3.986-11.63-4.21-16.92.051-.215.134-.407.313-.56.535-3.552 5.103-7.824 3.755-11.27-1.392-.582-.87-1.759-1.105-2.63-.521-.87.582-1.104 1.76-.521 2.63 4.958 7.409 10.646 7.599 15.082 4.018z" />
        <circle
            cx="24.816"
            cy="6.77"
            r="5.528" />
        <path d="m41.193 61.912v-13.5c-1.934-.123-3.839-.503-5.688-1.157v14.656c0 1.574 1.27 2.844 2.844 2.844 1.574.001 2.844-1.269 2.844-2.843z" />
        <path d="m49.517 61.912v-14.656c-1.849.654-3.754 1.033-5.688 1.157v13.5c0 1.574 1.27 2.844 2.844 2.844 1.573-.001 2.844-1.271 2.844-2.845z" />
        <path d="m56.113 12.317 2.897-2.892c.78-.78.78-2.051 0-2.837-.785-.78-2.051-.78-2.837 0-.016.022-.038.044-.06.065-.016-.022-.033-.044-.054-.065-.786-.78-2.052-.78-2.832 0-.786.786-.786 2.057-.005 2.837z" />
        <path d="m6.966 10.823 4.004.831.835-4.007c.537-2.589-3.379-3.417-3.929-.815-.001.027-.007.057-.013.087-.026-.009-.051-.018-.082-.024-2.608-.532-3.396 3.393-.815 3.928z" />
        <path d="m11.059 25.775c0 .022-.002.045-.005.069-.02-.009-.039-.018-.062-.025-1.965-.594-2.302 2.487-.348 3.085l3.026.926.358-3.147c.229-2.036-2.733-2.947-2.969-.908z" />
        <path d="m53.619 23.765c-.016 0-.033.008-.05.017 0-.017-.008-.041-.008-.058-.197-1.773-2.784-.993-2.586.793l.314 2.743 2.635-.81c1.708-.516 1.416-3.199-.305-2.685z" />
        <circle
            cx="42.512"
            cy="6.706"
            r="5.464" />
        <path d="m64.201 14.799c-.854-.605-2.038-.406-2.643.449-3.051 4.298-7.389 4.062-11.109.454-4.393-4.265-15.343-1.936-16.315.632l-5.881 15.524c-.371.979.122 2.074 1.101 2.445.985.373 2.076-.128 2.445-1.101l3.475-9.173v2.396l-3.55 18.019c6.844 4.082 14.726 4.082 21.581 0l-3.561-18.019v-6.484c5.35 3.568 10.964 3.063 14.908-2.498.604-.854.403-2.038-.451-2.644z" />
    </g>
</svg>