<?xml version="1.0"?>
<svg xmlns="http://www.w3.org/2000/svg" id="Icons" viewBox="0 0 74 74" width="512" height="512"><path d="M24.953,53.527a1,1,0,0,1-.625-.22C23.416,52.578,2,35.278,2,21.6c0-8.3,6.242-15.05,13.915-15.05a13.177,13.177,0,0,1,9.038,3.613,13.177,13.177,0,0,1,9.038-3.613c7.672,0,13.915,6.751,13.915,15.05a14.414,14.414,0,0,1-.161,2.1,1,1,0,0,1-1.979-.293,12.389,12.389,0,0,0,.139-1.8c0-7.2-5.345-13.05-11.915-13.05a11.287,11.287,0,0,0-8.306,3.709,1.031,1.031,0,0,1-1.464,0,11.287,11.287,0,0,0-8.306-3.709C9.345,8.551,4,14.405,4,21.6c0,11.488,17.407,26.66,20.953,29.631.987-.825,3.046-2.593,5.484-4.948C31.775,45,33.066,43.7,34.277,42.4c4.675-5.03,7.991-9.66,9.854-13.761a1,1,0,0,1,1.821.828c-1.953,4.3-5.388,9.106-10.212,14.3-1.238,1.327-2.556,2.659-3.918,3.961-3.48,3.363-6.134,5.494-6.245,5.583A1,1,0,0,1,24.953,53.527Z"/><path d="M24.942,46.492a1,1,0,0,1-.669-.257C16.094,38.879,7.354,28.544,7.354,21.6c0-5.346,3.84-9.7,8.56-9.7a8,8,0,0,1,5.859,2.641l3.178,2.967L28.179,14.5a7.948,7.948,0,0,1,5.812-2.594c4.708,0,8.548,4.339,8.561,9.672a1,1,0,0,1-1,1h0a1,1,0,0,1-1-1c-.009-4.232-2.953-7.676-6.561-7.676a6.024,6.024,0,0,0-4.4,2.008l-3.956,3.7a1,1,0,0,1-1.365,0L20.361,15.96a6.081,6.081,0,0,0-4.447-2.055c-3.617,0-6.56,3.452-6.56,7.7,0,6.105,8.244,15.8,15.584,22.538.932-.863,1.906-1.8,2.9-2.8,1.439-1.44,2.822-2.915,4.11-4.386a46.281,46.281,0,0,0,7.317-10.53,1,1,0,0,1,1.818.834,48.2,48.2,0,0,1-7.631,11.014c-1.317,1.5-2.73,3.012-4.2,4.482-1.264,1.264-2.49,2.436-3.644,3.482A1,1,0,0,1,24.942,46.492Z"/><path d="M49.047,67.449a1,1,0,0,1-.625-.219c-.478-.383-11.783-9.488-18.14-19.7a1,1,0,0,1,1.7-1.057c5.341,8.58,14.587,16.605,17.066,18.68C52.593,62.181,70,47,70,35.522c0-7.2-5.345-13.05-11.915-13.05a11.285,11.285,0,0,0-8.306,3.708,1,1,0,0,1-.732.318h0a1,1,0,0,1-.732-.32,11.884,11.884,0,0,0-2.113-1.8,10.983,10.983,0,0,0-4.774-1.811,9.586,9.586,0,0,0-1.417-.1c-6.57,0-11.915,5.854-11.915,13.05a16.188,16.188,0,0,0,1.379,6.138,1,1,0,1,1-1.847.768,18.152,18.152,0,0,1-1.533-6.905c0-8.3,6.242-15.05,13.915-15.05a11.435,11.435,0,0,1,1.688.117,12.939,12.939,0,0,1,5.614,2.129,13.914,13.914,0,0,1,1.735,1.367,13.175,13.175,0,0,1,9.039-3.613C65.758,20.473,72,27.224,72,35.522,72,49.2,50.584,66.5,49.672,67.229A1,1,0,0,1,49.047,67.449Z"/><path d="M49.037,60.413a1,1,0,0,1-.669-.257c-2.918-2.625-10.148-9.5-14.226-16.574a1,1,0,0,1,1.733-1c2.626,4.559,7.511,10.3,13.159,15.476,7.353-6.8,15.612-16.532,15.612-22.537,0-4.243-2.943-7.7-6.56-7.7a6.025,6.025,0,0,0-4.4,2.007l-3.956,3.7a1,1,0,0,1-1.365,0l-4.03-3.771a6,6,0,0,0-4.178-1.923,1.03,1.03,0,0,1-.173-.02c-3.593.009-6.536,3.461-6.536,7.7a8.145,8.145,0,0,0,.231,1.858,1,1,0,0,1-1.947.459,10.189,10.189,0,0,1-.284-2.317c0-5.346,3.84-9.7,8.561-9.7a2.235,2.235,0,0,1,.25.013,7.971,7.971,0,0,1,5.5,2.521l.083.083,3.2,2.99,3.226-3.014a7.948,7.948,0,0,1,5.812-2.593c4.72,0,8.56,4.35,8.56,9.7,0,8.823-14.109,22.066-16.937,24.631A1,1,0,0,1,49.037,60.413Z"/></svg>
