<svg id="Layer_1"
    height="512"
    viewBox="0 0 66 66"
    width="512"
    xmlns="http://www.w3.org/2000/svg">
    <g>
       <path d="m2.856 29.076c-.157.51-.092 1.062.175 1.522l4.927 8.459c.531.91 1.7 1.221 2.613.689.911-.531 1.22-1.701.689-2.612l-4.507-7.736 1.241-4.045.378 4.925 3.716 6.371c.793 1.376.334 3.124-1.041 3.926-.54.31-1.171.444-1.853.353l.095 1.299c.021.224.167.415.366.502 0 .017-.003.032-.003.049v19.356c0 1.583 1.283 2.866 2.866 2.866s2.866-1.283 2.866-2.866v-19.353h1.557v19.353c0 1.583 1.283 2.866 2.866 2.866s2.866-1.283 2.866-2.866v-19.356c0-.016-.003-.032-.003-.048.2-.087.346-.278.367-.503l1.266-16.488 1.437 4.481c.115.354.325.659.611.888 3.15 2.361 4.007 3.843 5.292 3.63-.679-.34-1.318-2.659.229-4.041l-2.665-2.178-3.735-11.644c-.434-1.34-9.594-7.823-18.148-.673-1.137.682-.617.936-4.468 12.874z" />
        <path d="m39.801 48.532.583 13.278c.067 1.538 1.337 2.741 2.866 2.741.1-.048 2.986-.16 2.866-2.99l-.516-11.845c-1.978-.095-3.918-.497-5.799-1.184z" />
        <path d="m52.754 63.08c.58 1.445 2.212 2.19 3.716 1.605 1.471-.592 2.197-2.254 1.605-3.725l-3.066-7.718-1.051-4.91c-1.815.716-3.687 1.165-5.588 1.328l1.079 5.015c.105.446.034.151 3.305 8.405z" />
        <circle
            cx="46.61"
            cy="11.017"
            r="5.059" />
        <circle
            cx="16.163"
            cy="6.57"
            r="5.57" />
        <path d="m62.52 33.954c-4.861-3.935-8.003-13.698-8.035-13.796-.951-2.996-13.324-4.371-15.025-.745-1.971 4.198-5.423 10.688-6.924 11.973-.801.686-.895 1.892-.209 2.694.688.804 1.895.893 2.694.209 1.41-1.207 3.294-4.329 4.886-7.275v2.261l-3.287 16.684c6.337 3.779 13.635 3.779 19.981 0l-3.297-16.684v-1.885c1.583 3.298 3.89 7.169 6.811 9.534.822.665 2.024.536 2.688-.283.663-.82.537-2.023-.283-2.687z" />
    </g>
</svg>